<svg width="24" height="24" viewBox="100.18 69.82 160.86 129.97" xmlns="http://www.w3.org/2000/svg" xmlns:svg="http://www.w3.org/2000/svg">
<!-- Created with SVG-edit - https://github.com/SVG-Edit/svgedit-->
<!-- Drawn by @pk5ls20 referencing https://github.com/hv0905/NekoImageGallery.App/blob/master/misc/logo.psd -->
<rect fill="none" height="98.75" id="svg_1" stroke="currentColor" stroke-width="7" transform="matrix(1 0 0 1 0 0)" width="160" x="101.04" y="101.04"/>
<path d="m231.49,130.64c0,0 -30.21,20.21 -30.21,20.21c0,0 30,20.21 30,20.21" fill="none" id="svg_21" stroke="currentColor" stroke-width="7" transform="matrix(1 0 0 1 0 0)"/>
<path d="m129.5,170.68c0,0 29.86,-20.74 29.86,-20.74c0,0 -30.35,-19.69 -30.35,-19.69" fill="none" id="svg_22" stroke="currentColor" stroke-width="7" transform="matrix(1 0 0 1 0 0)"/>
<path d="m100.18,100.9c0,0 28.92,-31.08 28.92,-31.08c0,0 49.73,0 49.55,-0.09c-0.18,-0.09 29.91,30.9 29.91,30.9" fill="none" id="svg_24" stroke="currentColor" stroke-width="7"/>
</svg>
